<svg xmlns="http://www.w3.org/2000/svg" viewBox="0 0 830.07 1000"><defs><style>.cls-1{fill:#4d8841;}</style></defs><g id="Layer_2" data-name="Layer 2"><g id="Layer_1-2" data-name="Layer 1"><path class="cls-1" d="M760.59,915.46a300.83,300.83,0,0,1-31.53-21h0l0,0c-21.78-16.27-44.66-36.24-63.18-53.23C622.48,806.26,557,756,470.1,696.18c-171-117.75-305.24-444.73-305.24-444.73s94,179.52,250.05,352C495.19,692.16,591,756.36,665.13,797.78,680.45,686,691.46,456.86,560.28,303.11c-94.93-111.23-224.2-150-335.59-199.18C125.76,60.25,38.49,0,38.49,0s-132.07,511,93.1,718.82c188.06,173.58,426,158.38,499.26,148.67A596,596,0,0,0,669,920c49.7,61,96.8,54.19,112.5,74.5s39.24-20.31,47.08-40.64S812.91,944.8,760.59,915.46Z"/></g></g></svg>