<svg xmlns="http://www.w3.org/2000/svg" viewBox="0 0 1000 1000"><defs><style>.cls-1{fill:#4d8841;}.cls-2{fill:#fff;}</style></defs><g id="Layer_2" data-name="Layer 2"><g id="Layer_1-2" data-name="Layer 1"><circle class="cls-1" cx="500" cy="500" r="500"/><circle class="cls-2" cx="500" cy="500" r="400"/><path class="cls-1" d="M705.07,746.56a178.12,178.12,0,0,1-18.7-12.46h0l0,0c-12.93-9.66-26.51-21.51-37.5-31.59-25.73-20.73-64.57-50.54-116.16-86.06-101.5-69.88-181.15-263.94-181.15-263.94S407.32,459,499.92,561.38c47.65,52.66,104.51,90.76,148.5,115.34,9.09-66.32,15.63-202.32-62.23-293.57-56.33-66-133.05-89-199.16-118.21-58.71-25.92-110.5-61.67-110.5-61.67s-78.38,303.24,55.25,426.59c111.61,103,252.8,94,296.3,88.23a355.65,355.65,0,0,0,22.65,31.15c29.5,36.17,57.45,32.15,66.77,44.21s23.29-12.06,27.93-24.12S736.13,764,705.07,746.56Z"/></g></g></svg>