<svg xmlns="http://www.w3.org/2000/svg" viewBox="0 0 2158.46 1732.12"><defs><style>.cls-1{fill:#e6e6e6;}.cls-2{font-size:42.78px;}.cls-15,.cls-2,.cls-3{font-family:MyriadPro-Regular, Myriad Pro;}.cls-3{font-size:16px;}.cls-4{letter-spacing:-0.01em;}.cls-5{fill:#202020;}.cls-6{letter-spacing:0.02em;}.cls-7{letter-spacing:0em;}.cls-8{letter-spacing:0em;}.cls-9{letter-spacing:-0.01em;}.cls-10{letter-spacing:-0.01em;}.cls-11{fill:#fff;stroke:#000;stroke-miterlimit:10;}.cls-12{letter-spacing:-0.01em;}.cls-13{letter-spacing:0em;}.cls-14{letter-spacing:0em;}.cls-15{font-size:14px;}.cls-16{letter-spacing:-0.01em;}.cls-17{letter-spacing:0em;}.cls-18{letter-spacing:0.01em;}.cls-19{letter-spacing:0em;}.cls-20{letter-spacing:0em;}.cls-21{letter-spacing:0em;}.cls-22{letter-spacing:0em;}.cls-23{letter-spacing:-0.01em;}.cls-24{letter-spacing:0em;}.cls-25{letter-spacing:0.02em;}.cls-26{letter-spacing:-0.01em;}.cls-27{letter-spacing:0em;}.cls-28{letter-spacing:0.01em;}.cls-29{letter-spacing:0em;}.cls-30{letter-spacing:0.01em;}.cls-31{letter-spacing:0.01em;}.cls-32{letter-spacing:-0.01em;}.cls-33{letter-spacing:-0.01em;}.cls-34{letter-spacing:0.01em;}.cls-35{letter-spacing:0em;}.cls-36{letter-spacing:-0.01em;}.cls-37{letter-spacing:-0.01em;}.cls-38{letter-spacing:0em;}.cls-39{letter-spacing:-0.01em;}.cls-40{letter-spacing:0em;}.cls-41{letter-spacing:0em;}.cls-42{letter-spacing:-0.03em;}.cls-43{letter-spacing:0em;}.cls-44{letter-spacing:-0.04em;}.cls-45{letter-spacing:-0.01em;}.cls-46{letter-spacing:0em;}.cls-47{letter-spacing:0em;}.cls-48{letter-spacing:0em;}.cls-49{letter-spacing:-0.01em;}.cls-50{letter-spacing:0em;}.cls-51{letter-spacing:0.01em;}.cls-52{letter-spacing:0em;}.cls-53{letter-spacing:0.02em;}.cls-54{letter-spacing:-0.01em;}.cls-55{letter-spacing:0em;}.cls-56{letter-spacing:0.03em;}</style></defs><g id="Layer_2" data-name="Layer 2"><g id="Layer_1-2" data-name="Layer 1"><rect class="cls-1" x="781.07" y="210.35" width="517.21" height="425.9"/><path d="M1297.78,210.85v424.9H781.57V210.85h516.21m1-1H780.57v426.9h518.21V209.85Z"/><rect class="cls-1" x="781.07" y="210.35" width="517.21" height="88.14"/><path d="M1297.78,210.85V298H781.57V210.85h516.21m1-1H780.57V299h518.21V209.85Z"/><text class="cls-2" transform="translate(961.74 274.21)">Home</text><text class="cls-3" transform="translate(1038.79 166.91)">he<tspan class="cls-4" x="16.9" y="0">r</tspan><tspan x="21.97" y="0">o image</tspan></text><path class="cls-5" d="M1092,182.34q-1.55,6.38-3.26,12.71l-1.77,6.32-.91,3.16-.91,3-11.07-3.36q3.09,12.49,5.44,25.45,10-8.5,19.74-17.82l-11.07-3.35.91-3,.92-3.17,1.78-6.36c1.16-4.26,2.25-8.52,3.28-12.81Z"/><text class="cls-3" transform="translate(794.14 373.75)">Sho<tspan class="cls-6" x="25.55" y="0">r</tspan><tspan x="31.17" y="0">t desc</tspan><tspan class="cls-7" x="70.4" y="0">r</tspan><tspan class="cls-8" x="75.69" y="0">iption of </tspan><tspan class="cls-9" x="135.49" y="0">w</tspan><tspan x="147.1" y="0">ebsi</tspan><tspan class="cls-10" x="174.3" y="0">t</tspan><tspan class="cls-8" x="179.5" y="0">e</tspan></text><rect class="cls-11" x="780.57" y="296.7" width="518.21" height="45.38"/><path class="cls-5" d="M1333.82,291.11q-5.27,3.92-10.65,7.67l-5.41,3.71-2.72,1.83-2.63,1.74-6.34-9.68q-5.64,11.56-12.15,23,13.15-.09,26.57-1l-6.34-9.67,2.64-1.75,2.75-1.84,5.45-3.74q5.41-3.78,10.73-7.72Z"/><text class="cls-3" transform="translate(1345.59 279.73)">n<tspan class="cls-12" x="8.88" y="0">a</tspan><tspan class="cls-13" x="16.46" y="0">vig</tspan><tspan class="cls-14" x="36.85" y="0">a</tspan><tspan x="44.5" y="0">tion bar</tspan></text><text class="cls-15" transform="translate(789.77 323.07)">Home</text><text class="cls-15" transform="translate(850.02 323.24)">But<tspan class="cls-16" x="19.94" y="0">t</tspan><tspan class="cls-17" x="24.49" y="0">ons</tspan></text><text class="cls-15" transform="translate(921.51 323.42)"><tspan class="cls-18">M</tspan><tspan x="11.34" y="0">edit</tspan><tspan class="cls-19" x="34.16" y="0">a</tspan><tspan x="40.85" y="0">tion</tspan></text><text class="cls-15" transform="translate(1015.76 323.07)"><tspan class="cls-18">M</tspan><tspan x="11.34" y="0">oti</tspan><tspan class="cls-20" x="26.94" y="0">va</tspan><tspan class="cls-21" x="40.31" y="0">tion</tspan></text><text class="cls-15" transform="translate(1115.94 323.59)">G<tspan class="cls-22" x="9.04" y="0">r</tspan><tspan class="cls-20" x="13.55" y="0">a</tspan><tspan class="cls-23" x="20.24" y="0">t</tspan><tspan x="24.79" y="0">eful List</tspan></text><text class="cls-15" transform="translate(1207.33 323.75)"><tspan class="cls-24">S</tspan><tspan class="cls-16" x="6.86" y="0">t</tspan><tspan x="11.41" y="0">o</tspan><tspan class="cls-25" x="19.1" y="0">r</tspan><tspan x="24.02" y="0">yboa</tspan><tspan class="cls-9" x="53.02" y="0">r</tspan><tspan x="57.46" y="0">d</tspan></text><rect class="cls-1" x="1461.35" y="392.66" width="517.21" height="425.9"/><path d="M1978.06,393.16v424.9H1461.85V393.16h516.21m1-1H1460.85v426.9h518.21V392.16Z"/><rect class="cls-1" x="1461.35" y="392.66" width="517.21" height="88.14"/><path d="M1978.06,393.16V480.3H1461.85V393.16h516.21m1-1H1460.85V481.3h518.21V392.16Z"/><text class="cls-2" transform="translate(1642.02 456.52)">But<tspan class="cls-26" x="60.92" y="0">t</tspan><tspan x="74.82" y="0">ons</tspan></text><text class="cls-3" transform="translate(1719.07 349.22)">he<tspan class="cls-4" x="16.9" y="0">r</tspan><tspan x="21.97" y="0">o image</tspan></text><path class="cls-5" d="M1772.3,364.65q-1.53,6.38-3.26,12.71l-1.76,6.33-.92,3.15-.9,3-11.07-3.36q3.08,12.5,5.43,25.45,10-8.51,19.74-17.82l-11.07-3.35.91-3,.93-3.17,1.77-6.36c1.16-4.26,2.25-8.52,3.29-12.81Z"/><text class="cls-3" transform="translate(1474.42 556.06)">Sho<tspan class="cls-6" x="25.55" y="0">r</tspan><tspan x="31.17" y="0">t desc</tspan><tspan class="cls-7" x="70.4" y="0">r</tspan><tspan class="cls-8" x="75.69" y="0">iption of </tspan><tspan class="cls-9" x="135.49" y="0">w</tspan><tspan x="147.1" y="0">ebpage</tspan></text><rect class="cls-11" x="1460.85" y="479.01" width="518.21" height="45.38"/><path class="cls-5" d="M2014.11,473.42q-5.28,3.91-10.66,7.67L1998,484.8l-2.72,1.83-2.63,1.74-6.34-9.68q-5.64,11.56-12.15,23,13.15-.09,26.58-1l-6.35-9.67,2.65-1.75,2.74-1.84,5.45-3.74q5.42-3.78,10.73-7.72Z"/><text class="cls-3" transform="translate(2025.88 462.04)">n<tspan class="cls-12" x="8.88" y="0">a</tspan><tspan class="cls-13" x="16.46" y="0">vig</tspan><tspan class="cls-14" x="36.85" y="0">a</tspan><tspan x="44.5" y="0">tion bar</tspan></text><text class="cls-15" transform="translate(1470.05 505.38)">Home</text><text class="cls-15" transform="translate(1530.3 505.55)">But<tspan class="cls-16" x="19.94" y="0">t</tspan><tspan class="cls-17" x="24.49" y="0">ons</tspan></text><text class="cls-15" transform="translate(1601.79 505.73)"><tspan class="cls-18">M</tspan><tspan x="11.34" y="0">edit</tspan><tspan class="cls-19" x="34.16" y="0">a</tspan><tspan x="40.85" y="0">tion</tspan></text><text class="cls-15" transform="translate(1696.04 505.38)"><tspan class="cls-18">M</tspan><tspan x="11.34" y="0">oti</tspan><tspan class="cls-20" x="26.94" y="0">va</tspan><tspan class="cls-21" x="40.31" y="0">tion</tspan></text><text class="cls-15" transform="translate(1796.23 505.9)">G<tspan class="cls-22" x="9.04" y="0">r</tspan><tspan class="cls-20" x="13.55" y="0">a</tspan><tspan class="cls-23" x="20.24" y="0">t</tspan><tspan x="24.79" y="0">eful List</tspan></text><text class="cls-15" transform="translate(1887.61 506.06)"><tspan class="cls-24">S</tspan><tspan class="cls-16" x="6.86" y="0">t</tspan><tspan x="11.41" y="0">o</tspan><tspan class="cls-25" x="19.1" y="0">r</tspan><tspan x="24.02" y="0">yboa</tspan><tspan class="cls-9" x="53.02" y="0">r</tspan><tspan x="57.46" y="0">d</tspan></text><rect class="cls-11" x="1479.79" y="575.91" width="332.03" height="150.88"/><text class="cls-15" transform="translate(1620.43 655.72)">But<tspan class="cls-23" x="19.94" y="0">t</tspan><tspan class="cls-27" x="24.49" y="0">ons</tspan></text><rect class="cls-1" x="1497.3" y="1022.77" width="517.21" height="425.9"/><path d="M2014,1023.27v424.89H1497.8V1023.27H2014m1-1H1496.8v426.89H2015V1022.27Z"/><rect class="cls-1" x="1497.3" y="1022.77" width="517.21" height="88.14"/><path d="M2014,1023.27v87.14H1497.8v-87.14H2014m1-1H1496.8v89.14H2015v-89.14Z"/><text class="cls-2" transform="translate(1677.97 1086.63)"><tspan class="cls-28">M</tspan><tspan x="34.65" y="0">edit</tspan><tspan class="cls-29" x="104.38" y="0">a</tspan><tspan x="124.83" y="0">tion</tspan></text><text class="cls-3" transform="translate(1755.02 979.33)">he<tspan class="cls-4" x="16.9" y="0">r</tspan><tspan x="21.97" y="0">o image</tspan></text><path class="cls-5" d="M1808.24,994.76q-1.53,6.38-3.26,12.71l-1.76,6.32-.92,3.15-.9,3-11.07-3.35q3.08,12.5,5.44,25.44,10-8.49,19.73-17.81l-11.07-3.36.91-3,.93-3.17,1.78-6.37q1.73-6.37,3.28-12.8Z"/><text class="cls-3" transform="translate(1510.36 1186.16)">Sho<tspan class="cls-6" x="25.55" y="0">r</tspan><tspan x="31.17" y="0">t desc</tspan><tspan class="cls-7" x="70.4" y="0">r</tspan><tspan class="cls-8" x="75.69" y="0">iption of </tspan><tspan class="cls-9" x="135.49" y="0">w</tspan><tspan x="147.1" y="0">ebpage</tspan><tspan class="cls-30" x="0" y="38.4">M</tspan><tspan class="cls-8" x="12.96" y="38.4">edit</tspan><tspan class="cls-14" x="39.04" y="38.4">a</tspan><tspan x="46.69" y="38.4">tion instru</tspan><tspan class="cls-31" x="115.09" y="38.4">c</tspan><tspan x="122.46" y="38.4">tions</tspan></text><rect class="cls-11" x="1496.8" y="1109.12" width="518.21" height="45.38"/><path class="cls-5" d="M2050.05,1103.53q-5.28,3.9-10.66,7.66l-5.41,3.72-2.72,1.83-2.62,1.73-6.35-9.67q-5.64,11.57-12.14,23,13.14-.09,26.57-1l-6.34-9.68,2.64-1.74,2.74-1.84,5.45-3.74q5.41-3.79,10.73-7.72Z"/><text class="cls-3" transform="translate(2061.82 1092.15)">n<tspan class="cls-12" x="8.88" y="0">a</tspan><tspan class="cls-13" x="16.46" y="0">vig</tspan><tspan class="cls-14" x="36.85" y="0">a</tspan><tspan x="44.5" y="0">tion bar</tspan></text><text class="cls-15" transform="translate(1566.24 1135.66)">But<tspan class="cls-16" x="19.94" y="0">t</tspan><tspan class="cls-17" x="24.49" y="0">ons</tspan></text><text class="cls-15" transform="translate(1637.73 1135.83)"><tspan class="cls-18">M</tspan><tspan x="11.34" y="0">edit</tspan><tspan class="cls-19" x="34.16" y="0">a</tspan><tspan x="40.85" y="0">tion</tspan></text><text class="cls-15" transform="translate(1731.99 1135.48)"><tspan class="cls-18">M</tspan><tspan x="11.34" y="0">oti</tspan><tspan class="cls-20" x="26.94" y="0">va</tspan><tspan class="cls-21" x="40.31" y="0">tion</tspan></text><text class="cls-15" transform="translate(1832.17 1136.01)">G<tspan class="cls-22" x="9.04" y="0">r</tspan><tspan class="cls-20" x="13.55" y="0">a</tspan><tspan class="cls-23" x="20.24" y="0">t</tspan><tspan x="24.79" y="0">eful List</tspan></text><text class="cls-15" transform="translate(1923.56 1136.16)"><tspan class="cls-24">S</tspan><tspan class="cls-16" x="6.86" y="0">t</tspan><tspan x="11.41" y="0">o</tspan><tspan class="cls-25" x="19.1" y="0">r</tspan><tspan x="24.02" y="0">yboa</tspan><tspan class="cls-9" x="53.02" y="0">r</tspan><tspan x="57.46" y="0">d</tspan></text><rect class="cls-11" x="1517.16" y="1258.02" width="458.83" height="50.9"/><text class="cls-15" transform="translate(1691.71 1286.62)"><tspan class="cls-32">A</tspan><tspan x="8.4" y="0">udio/soundt</tspan><tspan class="cls-33" x="81.02" y="0">r</tspan><tspan x="85.53" y="0">acks</tspan></text><rect class="cls-1" x="757.95" y="1154.77" width="517.21" height="425.9"/><path d="M1274.66,1155.27v424.9H758.45v-424.9h516.21m1-1H757.45v426.9h518.21v-426.9Z"/><rect class="cls-1" x="757.95" y="1154.77" width="517.21" height="88.14"/><path d="M1274.66,1155.27v87.14H758.45v-87.14h516.21m1-1H757.45v89.14h518.21v-89.14Z"/><text class="cls-2" transform="translate(938.62 1218.63)"><tspan class="cls-28">M</tspan><tspan x="34.65" y="0">oti</tspan><tspan class="cls-29" x="82.31" y="0">va</tspan><tspan x="123.16" y="0">tion</tspan></text><text class="cls-3" transform="translate(1015.67 1111.33)">he<tspan class="cls-4" x="16.9" y="0">r</tspan><tspan x="21.97" y="0">o image</tspan></text><path class="cls-5" d="M1068.9,1126.76q-1.55,6.38-3.26,12.71l-1.77,6.32-.92,3.15-.9,3L1051,1148.6q3.09,12.5,5.44,25.45,10-8.5,19.74-17.82l-11.07-3.35.91-3,.92-3.17,1.78-6.36q1.72-6.39,3.28-12.81Z"/><text class="cls-3" transform="translate(771.01 1318.17)">Sho<tspan class="cls-6" x="25.55" y="0">r</tspan><tspan x="31.17" y="0">t desc</tspan><tspan class="cls-7" x="70.4" y="0">r</tspan><tspan class="cls-8" x="75.69" y="0">iption of </tspan><tspan class="cls-9" x="135.49" y="0">w</tspan><tspan x="147.1" y="0">ebpage</tspan><tspan class="cls-34" x="0" y="38.4">H</tspan><tspan x="10.58" y="38.4">ype</tspan><tspan class="cls-7" x="35.23" y="38.4">r</tspan><tspan class="cls-8" x="40.53" y="38.4">links </tspan><tspan class="cls-10" x="74.16" y="38.4">t</tspan><tspan class="cls-35" x="79.36" y="38.4">o di</tspan><tspan class="cls-36" x="104.3" y="38.4">ff</tspan><tspan x="113.42" y="38.4">e</tspan><tspan class="cls-37" x="121.44" y="38.4">r</tspan><tspan class="cls-35" x="126.51" y="38.4">e</tspan><tspan class="cls-38" x="134.53" y="38.4">n</tspan><tspan x="143.34" y="38.4">t moti</tspan><tspan class="cls-38" x="183.2" y="38.4">va</tspan><tspan x="198.48" y="38.4">tional message c</tspan><tspan class="cls-14" x="309.32" y="38.4">a</tspan><tspan class="cls-39" x="316.97" y="38.4">t</tspan><tspan x="322.17" y="38.4">ego</tspan><tspan class="cls-40" x="347.91" y="38.4">r</tspan><tspan class="cls-13" x="353.21" y="38.4">ies</tspan></text><rect class="cls-11" x="757.45" y="1241.12" width="518.21" height="45.38"/><path class="cls-5" d="M1310.7,1235.53q-5.27,3.92-10.65,7.67l-5.41,3.71-2.73,1.83-2.62,1.73-6.34-9.67q-5.65,11.57-12.15,23,13.15-.09,26.57-1l-6.34-9.67,2.64-1.75,2.74-1.84,5.45-3.74q5.43-3.78,10.73-7.72Z"/><text class="cls-3" transform="translate(1322.47 1224.15)">n<tspan class="cls-12" x="8.88" y="0">a</tspan><tspan class="cls-13" x="16.46" y="0">vig</tspan><tspan class="cls-14" x="36.85" y="0">a</tspan><tspan x="44.5" y="0">tion bar</tspan></text><text class="cls-15" transform="translate(826.9 1267.66)">But<tspan class="cls-16" x="19.94" y="0">t</tspan><tspan class="cls-17" x="24.49" y="0">ons</tspan></text><text class="cls-15" transform="translate(898.38 1267.84)"><tspan class="cls-18">M</tspan><tspan x="11.34" y="0">edit</tspan><tspan class="cls-19" x="34.16" y="0">a</tspan><tspan x="40.85" y="0">tion</tspan></text><text class="cls-15" transform="translate(992.64 1267.49)"><tspan class="cls-18">M</tspan><tspan x="11.34" y="0">oti</tspan><tspan class="cls-20" x="26.94" y="0">va</tspan><tspan class="cls-21" x="40.31" y="0">tion</tspan></text><text class="cls-15" transform="translate(1092.82 1268.01)">G<tspan class="cls-22" x="9.04" y="0">r</tspan><tspan class="cls-20" x="13.55" y="0">a</tspan><tspan class="cls-23" x="20.24" y="0">t</tspan><tspan x="24.79" y="0">eful List</tspan></text><text class="cls-15" transform="translate(1184.21 1268.17)"><tspan class="cls-24">S</tspan><tspan class="cls-16" x="6.86" y="0">t</tspan><tspan x="11.41" y="0">o</tspan><tspan class="cls-25" x="19.1" y="0">r</tspan><tspan x="24.02" y="0">yboa</tspan><tspan class="cls-9" x="53.02" y="0">r</tspan><tspan x="57.46" y="0">d</tspan></text><rect class="cls-11" x="772.23" y="1377.36" width="196.21" height="36.23"/><rect class="cls-11" x="772.23" y="1425.05" width="196.21" height="36.23"/><text class="cls-15" transform="translate(780.87 1400.8)"><tspan class="cls-41">G</tspan><tspan class="cls-21" x="9.11" y="0">ene</tspan><tspan class="cls-33" x="30.91" y="0">r</tspan><tspan x="35.42" y="0">al messages</tspan></text><text class="cls-15" transform="translate(778.99 1443.86)"><tspan class="cls-42">W</tspan><tspan x="11.38" y="0">o</tspan><tspan class="cls-43" x="19.07" y="0">r</tspan><tspan class="cls-17" x="23.7" y="0">k messages</tspan></text><rect class="cls-11" x="772.23" y="1472.75" width="196.21" height="36.23"/><rect class="cls-11" x="772.23" y="1517.69" width="196.21" height="36.23"/><text class="cls-15" transform="translate(782.66 1492.93)"><tspan class="cls-44">F</tspan><tspan x="6.19" y="0">amous quo</tspan><tspan class="cls-16" x="71.81" y="0">t</tspan><tspan x="76.36" y="0">es</tspan></text><text class="cls-15" transform="translate(786.92 1541.17)"><tspan class="cls-18">S</tspan><tspan class="cls-21" x="6.99" y="0">elf imp</tspan><tspan class="cls-9" x="47.28" y="0">r</tspan><tspan class="cls-45" x="51.72" y="0">o</tspan><tspan class="cls-9" x="59.3" y="0">v</tspan><tspan class="cls-21" x="65.9" y="0">eme</tspan><tspan class="cls-20" x="91.6" y="0">n</tspan><tspan x="99.31" y="0">t</tspan></text><text class="cls-15" transform="translate(1511.03 1135.48)">Home</text><text class="cls-15" transform="translate(771.69 1267.49)">Home</text><rect class="cls-1" x="1" y="1015" width="517.21" height="425.9"/><path d="M517.71,1015.5v424.9H1.5V1015.5H517.71m1-1H.5v426.9H518.71V1014.5Z"/><rect class="cls-1" x="1" y="1015" width="517.21" height="88.14"/><path d="M517.71,1015.5v87.14H1.5V1015.5H517.71m1-1H.5v89.14H518.71V1014.5Z"/><text class="cls-2" transform="translate(181.67 1078.86)">G<tspan class="cls-46" x="27.64" y="0">r</tspan><tspan class="cls-47" x="41.41" y="0">a</tspan><tspan class="cls-26" x="61.86" y="0">t</tspan><tspan class="cls-48" x="75.76" y="0">eful list</tspan></text><rect class="cls-11" x="11.27" y="1190.94" width="196.21" height="36.23"/><text class="cls-3" transform="translate(258.72 971.56)">he<tspan class="cls-4" x="16.9" y="0">r</tspan><tspan x="21.97" y="0">o image</tspan></text><path class="cls-5" d="M312,987q-1.54,6.38-3.26,12.71l-1.77,6.32-.92,3.15-.9,3L294,1008.83q3.09,12.49,5.44,25.45,10-8.51,19.74-17.82l-11.07-3.36.91-3,.92-3.17,1.78-6.37q1.74-6.37,3.28-12.8Z"/><text class="cls-3" transform="translate(14.07 1178.4)">Sho<tspan class="cls-6" x="25.55" y="0">r</tspan><tspan x="31.17" y="0">t desc</tspan><tspan class="cls-7" x="70.4" y="0">r</tspan><tspan class="cls-8" x="75.69" y="0">iption of </tspan><tspan class="cls-9" x="135.49" y="0">w</tspan><tspan x="147.1" y="0">ebpage</tspan><tspan class="cls-49" x="0" y="38.4">P</tspan><tspan x="8.43" y="38.4">la</tspan><tspan class="cls-10" x="19.92" y="38.4">c</tspan><tspan x="26.99" y="38.4">eholder </tspan><tspan class="cls-39" x="82.11" y="38.4">t</tspan><tspan class="cls-50" x="87.31" y="38.4">e</tspan><tspan class="cls-51" x="95.28" y="38.4">x</tspan><tspan x="102.9" y="38.4">t</tspan></text><rect class="cls-11" x="0.5" y="1101.35" width="518.21" height="45.38"/><path class="cls-5" d="M553.75,1095.76q-5.26,3.91-10.65,7.66l-5.41,3.72L535,1109l-2.62,1.73L526,1101q-5.65,11.57-12.15,23,13.15-.09,26.57-1l-6.34-9.67,2.64-1.75,2.75-1.84,5.44-3.74q5.43-3.78,10.73-7.72Z"/><text class="cls-3" transform="translate(565.52 1084.38)">n<tspan class="cls-12" x="8.88" y="0">a</tspan><tspan class="cls-13" x="16.46" y="0">vig</tspan><tspan class="cls-14" x="36.85" y="0">a</tspan><tspan x="44.5" y="0">tion bar</tspan></text><text class="cls-15" transform="translate(69.95 1127.89)">But<tspan class="cls-16" x="19.94" y="0">t</tspan><tspan class="cls-17" x="24.49" y="0">ons</tspan></text><text class="cls-15" transform="translate(141.43 1128.07)"><tspan class="cls-18">M</tspan><tspan x="11.34" y="0">edit</tspan><tspan class="cls-19" x="34.16" y="0">a</tspan><tspan x="40.85" y="0">tion</tspan></text><text class="cls-15" transform="translate(235.69 1127.71)"><tspan class="cls-18">M</tspan><tspan x="11.34" y="0">oti</tspan><tspan class="cls-20" x="26.94" y="0">va</tspan><tspan class="cls-21" x="40.31" y="0">tion</tspan></text><text class="cls-15" transform="translate(335.87 1128.24)">G<tspan class="cls-22" x="9.04" y="0">r</tspan><tspan class="cls-20" x="13.55" y="0">a</tspan><tspan class="cls-23" x="20.24" y="0">t</tspan><tspan x="24.79" y="0">eful List</tspan></text><text class="cls-15" transform="translate(427.26 1128.4)"><tspan class="cls-24">S</tspan><tspan class="cls-16" x="6.86" y="0">t</tspan><tspan x="11.41" y="0">o</tspan><tspan class="cls-25" x="19.1" y="0">r</tspan><tspan x="24.02" y="0">yboa</tspan><tspan class="cls-9" x="53.02" y="0">r</tspan><tspan x="57.46" y="0">d</tspan></text><rect class="cls-11" x="15.28" y="1234.77" width="196.21" height="179.38"/><text class="cls-15" transform="translate(14.74 1127.71)">Home</text><rect class="cls-1" x="31.48" y="332.91" width="517.21" height="425.9"/><path d="M548.19,333.41v424.9H32V333.41H548.19m1-1H31v426.9H549.19V332.41Z"/><rect class="cls-1" x="31.48" y="332.91" width="517.21" height="88.14"/><path d="M548.19,333.41v87.14H32V333.41H548.19m1-1H31v89.14H549.19V332.41Z"/><text class="cls-2" transform="translate(212.15 396.77)"><tspan class="cls-52">S</tspan><tspan class="cls-26" x="20.96" y="0">t</tspan><tspan x="34.87" y="0">o</tspan><tspan class="cls-53" x="58.35" y="0">r</tspan><tspan x="73.41" y="0">yboa</tspan><tspan class="cls-54" x="162.01" y="0">r</tspan><tspan class="cls-55" x="175.57" y="0">d</tspan></text><text class="cls-3" transform="translate(289.2 289.48)">he<tspan class="cls-4" x="16.9" y="0">r</tspan><tspan x="21.97" y="0">o image</tspan></text><path class="cls-5" d="M342.42,304.9q-1.53,6.38-3.25,12.72l-1.77,6.32-.92,3.15-.9,3-11.07-3.35q3.09,12.48,5.44,25.44,10-8.51,19.74-17.82L338.62,331l.9-3,.93-3.18,1.78-6.36q1.72-6.37,3.28-12.81Z"/><rect class="cls-11" x="30.98" y="419.26" width="518.21" height="45.38"/><path class="cls-5" d="M584.23,413.67q-5.26,3.91-10.65,7.67l-5.41,3.71-2.73,1.83-2.62,1.74-6.35-9.68q-5.64,11.56-12.14,23,13.15-.07,26.57-1l-6.34-9.67,2.64-1.75,2.74-1.84,5.45-3.74q5.42-3.78,10.73-7.72Z"/><text class="cls-3" transform="translate(596 402.29)">n<tspan class="cls-12" x="8.88" y="0">a</tspan><tspan class="cls-13" x="16.46" y="0">vig</tspan><tspan class="cls-14" x="36.85" y="0">a</tspan><tspan x="44.5" y="0">tion bar</tspan></text><text class="cls-15" transform="translate(40.18 445.63)">Home</text><text class="cls-15" transform="translate(100.43 445.8)">But<tspan class="cls-16" x="19.94" y="0">t</tspan><tspan class="cls-17" x="24.49" y="0">ons</tspan></text><text class="cls-15" transform="translate(171.91 445.98)"><tspan class="cls-18">M</tspan><tspan x="11.34" y="0">edit</tspan><tspan class="cls-19" x="34.16" y="0">a</tspan><tspan x="40.85" y="0">tion</tspan></text><text class="cls-15" transform="translate(266.17 445.63)"><tspan class="cls-18">M</tspan><tspan x="11.34" y="0">oti</tspan><tspan class="cls-20" x="26.94" y="0">va</tspan><tspan class="cls-21" x="40.31" y="0">tion</tspan></text><text class="cls-15" transform="translate(366.35 446.16)">G<tspan class="cls-22" x="9.04" y="0">r</tspan><tspan class="cls-20" x="13.55" y="0">a</tspan><tspan class="cls-23" x="20.24" y="0">t</tspan><tspan x="24.79" y="0">eful List</tspan></text><text class="cls-15" transform="translate(457.74 446.31)"><tspan class="cls-24">S</tspan><tspan class="cls-16" x="6.86" y="0">t</tspan><tspan x="11.41" y="0">o</tspan><tspan class="cls-25" x="19.1" y="0">r</tspan><tspan x="24.02" y="0">yboa</tspan><tspan class="cls-9" x="53.02" y="0">r</tspan><tspan x="57.46" y="0">d</tspan></text><rect class="cls-11" x="75.18" y="488.2" width="298.06" height="167.52"/><text class="cls-15" transform="translate(102.19 571.87)">image of s<tspan class="cls-16" x="59.79" y="0">t</tspan><tspan class="cls-17" x="64.34" y="0">o</tspan><tspan class="cls-56" x="72.03" y="0">r</tspan><tspan x="76.96" y="0">yboa</tspan><tspan class="cls-9" x="105.95" y="0">r</tspan><tspan x="110.39" y="0">d</tspan></text><path class="cls-5" d="M40.92,445.91c3.41-8.39,7.47-16.59,11.72-24.63s8.83-15.94,13.61-23.7A464.59,464.59,0,0,1,97.82,353a454.11,454.11,0,0,1,78-76.33A438,438,0,0,1,270,221.76l6.3-2.65c2.11-.85,4.18-1.82,6.33-2.57l12.81-4.76,3.21-1.19,3.24-1.07c2.16-.7,4.32-1.45,6.49-2.12,4.37-1.28,8.72-2.63,13.14-3.73a376,376,0,0,1,53.71-9.89c36.25-4,72.89-3.57,109.22-.41a856.06,856.06,0,0,1,108,17c35.63,7.86,70.85,17.61,105.55,28.88q26,8.47,51.64,18.14,6.4,2.43,12.76,4.94l5.59,2.23.34.14-2.18,5.36c4.32-.62,8.64-1.21,13-1.72-2.62-3.52-5.32-7-8.05-10.47L769,263.26l-.33-.14-5.6-2.24c-4.25-1.68-8.51-3.32-12.78-4.95q-25.63-9.7-51.72-18.16c-34.75-11.29-70-21.05-105.7-28.92A856.43,856.43,0,0,0,484.6,191.79c-18.21-1.56-36.48-2.52-54.77-2.49a493.7,493.7,0,0,0-54.76,2.91,376.79,376.79,0,0,0-53.93,9.92c-4.45,1.11-8.82,2.47-13.21,3.76-2.18.67-4.35,1.42-6.52,2.13l-3.26,1.07-3.22,1.19-12.86,4.78c-2.16.76-4.23,1.73-6.35,2.58l-6.33,2.66a439.89,439.89,0,0,0-94.59,55.08A455.82,455.82,0,0,0,96.58,352,467.75,467.75,0,0,0,64.9,396.74c-4.79,7.79-9.37,15.71-13.66,23.79s-8.33,16.29-11.8,24.81Z"/><polygon class="cls-5" points="1471.31 504.61 1310.02 464.05 1311.43 458.44 1298.78 462.04 1308.23 471.2 1309.64 465.59 1470.92 506.15 1471.31 504.61"/><polygon class="cls-5" points="1511.73 1135.1 1242.04 646.34 1247.11 643.55 1235.84 636.75 1235.59 649.9 1240.65 647.11 1510.34 1135.87 1511.73 1135.1"/><polygon class="cls-5" points="788.29 1250.44 889.37 657.58 895.07 658.55 890.5 646.21 882.1 656.34 887.8 657.31 786.72 1250.17 788.29 1250.44"/><path class="cls-5" d="M41.9,1111.78c5.53-8,11.39-15.74,17.34-23.41s12.06-15.25,18.3-22.7q18.67-22.39,38.84-43.49c13.44-14,27.33-27.67,41.76-40.69S187.47,956,203,944.22c30.94-23.48,64.16-44.18,99.82-59.64a342.57,342.57,0,0,1,55.08-18.7c4.73-1.08,9.46-2.19,14.23-3l3.58-.69,3.59-.59,7.19-1.17,14.41-2.46,1.81-.31c.59-.11,1.19-.25,1.78-.38l3.57-.79,7.14-1.57c2.38-.55,4.78-1,7.13-1.63l7.06-1.88c4.7-1.28,9.45-2.4,14.08-3.93l14-4.31,13.8-4.81c4.62-1.54,9.13-3.39,13.68-5.12s9.11-3.45,13.58-5.4l13.47-5.67,13.3-6a962.8,962.8,0,0,0,102.63-55.71q24.81-15.4,48.93-31.9t47.46-34q23.38-17.51,46-36c3.78-3.07,7.52-6.19,11.26-9.31l4.9-4.14.28-.24,3.75,4.41c1.49-4.15,3-8.3,4.35-12.46-4.3.87-8.59,1.67-12.88,2.44l3.75,4.41-.27.23-4.9,4.13q-5.6,4.68-11.24,9.3-22.57,18.47-46,35.92t-47.41,34Q651.82,743.64,627,759c-33.07,20.45-67.14,39.34-102.45,55.62l-13.28,6-13.44,5.65c-4.45,1.95-9,3.64-13.54,5.39s-9,3.57-13.65,5.11l-13.76,4.79L443,845.91c-4.62,1.52-9.35,2.64-14,3.92l-7,1.87c-2.34.64-4.74,1.08-7.1,1.62l-7.11,1.57-3.56.78c-.59.13-1.18.27-1.78.39l-1.79.3-14.36,2.45L379,860l-3.61.59-3.6.7c-4.8.87-9.55,2-14.3,3.07a343.79,343.79,0,0,0-55.34,18.78C266.34,898.65,233,919.42,202,943c-15.53,11.77-30.48,24.29-44.93,37.35s-28.39,26.69-41.84,40.77-26.44,28.61-38.92,43.57q-9.37,11.2-18.33,22.74c-6,7.7-11.82,15.48-17.4,23.5Z"/><polygon class="cls-5" points="894.79 322.13 1449.53 434.33 1448.38 440 1460.85 435.81 1450.99 427.11 1449.85 432.78 895.11 320.57 894.79 322.13"/><polygon class="cls-5" points="1590.67 1112.97 1576.59 830.4 1582.36 830.11 1575.23 819.06 1569.23 830.76 1575 830.48 1589.09 1113.05 1590.67 1112.97"/><path class="cls-5" d="M839.58,1244q34.92-36.81,71.11-72.4t73.19-70.32c49.55-46,100.38-90.83,154-132,3.32-2.62,6.75-5.1,10.12-7.65s6.74-5.1,10.17-7.57c6.87-4.93,13.66-10,20.65-14.71,3.49-2.39,6.93-4.85,10.45-7.19l10.58-7c3.5-2.37,7.13-4.53,10.7-6.79s7.15-4.49,10.78-6.67q43.44-26.28,86.55-53.09t85.82-54.24q21.35-13.74,42.56-27.68l15.54-10.3,3.21,4.81,5.8-11.83-13.1.89L1451,765l-15.53,10.3q-21.18,14-42.55,27.66-42.68,27.45-85.8,54.23t-86.53,53.08c-3.62,2.17-7.2,4.45-10.8,6.68s-7.22,4.43-10.72,6.81l-10.61,7c-3.52,2.34-7,4.8-10.46,7.19-7,4.76-13.81,9.81-20.69,14.74-3.43,2.48-6.78,5.06-10.18,7.58s-6.81,5-10.13,7.66c-53.72,41.25-104.59,86-154.16,132.13q-37.11,34.65-73.22,70.35t-71.15,72.45Z"/><path class="cls-5" d="M103.09,1113.8c31.23-1.31,62.44-3,93.63-4.9s62.38-4,93.55-6.34c62.33-4.68,124.6-10.22,186.74-17s124.16-14.79,185.83-25.1c30.83-5.16,61.57-10.94,92.09-17.73,15.26-3.41,30.46-7.08,45.57-11.12s30.12-8.45,44.94-13.49A387.9,387.9,0,0,0,889,1000.63l21.12-10.19c7-3.41,14.1-6.76,21-10.34l20.92-10.6c7-3.52,13.95-7,20.85-10.7l20.77-10.88c6.91-3.65,13.87-7.2,20.73-10.93l41.3-22.19,41.11-22.53q41-22.69,81.86-45.71,81.64-46.08,162.63-93.33,40.52-23.58,80.87-47.43l29.28-17.36,3,5,6.42-11.48-13.15.18,3,5-29.28,17.35q-40.35,23.84-80.86,47.43-81,47.19-162.61,93.32-40.79,23.09-81.84,45.7L1055,913.41l-41.28,22.18c-6.86,3.73-13.82,7.28-20.73,10.93l-20.76,10.87c-6.9,3.67-13.88,7.18-20.84,10.7l-20.91,10.59c-6.94,3.58-14,6.93-21,10.33l-21.1,10.19a389.36,389.36,0,0,1-43.4,17.41c-14.77,5-29.75,9.43-44.83,13.46s-30.27,7.69-45.5,11.1c-30.49,6.78-61.2,12.56-92,17.72C601,1069.19,539,1077.18,476.84,1084s-124.37,12.32-186.69,17q-46.74,3.49-93.52,6.34c-31.19,1.87-62.4,3.58-93.61,4.9Z"/><polygon class="cls-5" points="984.06 323.81 1490.49 1218.42 1485.46 1221.27 1496.8 1227.95 1496.91 1214.79 1491.87 1217.64 985.44 323.03 984.06 323.81"/><polygon class="cls-5" points="1664.24 505.81 1717.97 1011.02 1712.21 1011.63 1719.96 1022.27 1725.29 1010.24 1719.54 1010.85 1665.82 505.64 1664.24 505.81"/><polygon class="cls-5" points="958.94 1262.71 1485.64 1184.2 1486.5 1189.92 1496.8 1181.74 1484.56 1176.91 1485.41 1182.63 958.7 1261.14 958.94 1262.71"/><path class="cls-5" d="M204.81,1112.11q170.9-29.79,342.27-56.92,85.68-13.56,171.49-26.26T890.39,1005q43-5.55,86.09-10.49c28.73-3.23,57.49-6.26,86.29-8.65q21.6-1.85,43.24-3c14.43-.78,28.87-1.34,43.3-1.2l5.41.07c1.8,0,3.6.14,5.4.21,3.61.09,7.19.43,10.78.7,3.56.43,7.13.82,10.66,1.56l5.32,1,2.65.49c.89.17,1.76.4,2.64.6a349.5,349.5,0,0,1,41.53,12.07c6.83,2.33,13.54,5,20.28,7.59,6.66,2.78,13.37,5.45,19.94,8.44s13.15,6,19.7,9c3.26,1.55,6.49,3.17,9.74,4.75l4.86,2.38L1313,1033c25.76,13.08,50.91,27.37,75.61,42.37s48.92,30.78,72.74,47.15q8.92,6.13,17.76,12.42l7.7,5.53.29.21-3.39,4.68c4.34.44,8.69.89,13,1.41-1.74-4-3.53-8-5.34-12.07l-3.39,4.69-.29-.21-7.71-5.53q-8.85-6.28-17.78-12.44c-23.84-16.39-48.09-32.19-72.82-47.2s-49.91-29.32-75.71-42.43l-4.83-2.47-4.87-2.39c-3.26-1.58-6.49-3.2-9.76-4.75-6.56-3.06-13.09-6.17-19.74-9s-13.31-5.68-20-8.46c-6.76-2.6-13.49-5.28-20.35-7.61a350.38,350.38,0,0,0-41.71-12.13c-.88-.2-1.76-.43-2.65-.6l-2.67-.5-5.35-1c-3.55-.74-7.18-1.15-10.79-1.58-3.62-.27-7.23-.61-10.86-.71-1.81-.07-3.62-.17-5.43-.21l-5.43-.07c-14.49-.14-29,.43-43.4,1.2s-28.88,1.83-43.29,3.06c-28.83,2.39-57.6,5.42-86.34,8.65s-57.44,6.79-86.12,10.5q-86,11.13-171.85,23.92t-171.5,26.26q-171.36,27.17-342.3,56.93Z"/><path class="cls-5" d="M134.2,428.92c6.69-8.93,14-17.48,21.39-25.89s15.08-16.59,22.88-24.63q23.47-24.11,48.7-46.39t51.75-43q26.55-20.65,54.29-39.73t56.45-36.61Q418.4,195.2,448,179.25c9.84-5.38,19.83-10.48,29.8-15.62l15.06-7.49c5-2.51,10.11-4.86,15.16-7.3,20.27-9.6,40.73-18.8,61.47-27.35l7.76-3.25,7.81-3.12,15.63-6.22c10.5-4,20.94-8.05,31.52-11.77,21.07-7.71,42.39-14.7,63.79-21.43q64.31-19.83,130.12-34.22A1762.65,1762.65,0,0,1,1092.64,5.17q67.17-4.08,134.53-3.5t134.36,7l16.74,1.69,16.7,2c11.15,1.25,22.22,3,33.33,4.59,22.15,3.51,44.26,7.34,66.14,12.24l8.22,1.77c2.75.58,5.46,1.3,8.19,1.94l16.35,4c10.82,2.93,21.69,5.68,32.41,9,5.37,1.59,10.76,3.13,16.08,4.92s10.68,3.4,16,5.22l15.86,5.6c5.27,1.91,10.47,4,15.71,6,41.72,16.37,82,36.54,119.28,61.54a502.88,502.88,0,0,1,53.21,41c2.14,1.8,4.15,3.76,6.22,5.64s4.12,3.79,6.16,5.72l6,5.88,3,2.94,2.92,3,5.82,6.06,5.65,6.21,2.82,3.12c.93,1,1.82,2.12,2.74,3.18l5.45,6.39c7.09,8.67,14,17.52,20.38,26.7s12.46,18.62,18.1,28.3a368.87,368.87,0,0,1,28.28,60.84,313.24,313.24,0,0,1,9.55,32.17l.93,4.09.87,4.11.79,4.11.34,1.92,0,.09.06.35-5.7,1c2.77,3.26,5.5,6.6,8,10.17,1.85-4,3.43-8.17,4.94-12.4l-5.7,1-.06-.35,0-.09-.34-1.93-.8-4.15-.87-4.13-.94-4.11a310.13,310.13,0,0,0-9.6-32.34,369.72,369.72,0,0,0-28.4-61.11c-5.66-9.71-11.75-19.18-18.17-28.41s-13.34-18.1-20.46-26.81l-5.47-6.41c-.92-1.06-1.82-2.14-2.75-3.19l-2.83-3.13-5.67-6.24-5.85-6.08-2.92-3-3-3-6-5.9c-2-1.93-4.12-3.82-6.18-5.73s-4.09-3.86-6.24-5.67a505.66,505.66,0,0,0-53.37-41.13c-37.34-25.07-77.78-45.29-119.59-61.7-5.25-2-10.47-4.08-15.75-6l-15.89-5.61c-5.31-1.82-10.67-3.49-16-5.24s-10.73-3.33-16.11-4.92c-10.74-3.3-21.63-6.06-32.47-9l-16.38-4c-2.73-.64-5.45-1.36-8.19-1.93l-8.24-1.78c-21.92-4.91-44.06-8.74-66.24-12.26-11.12-1.56-22.21-3.34-33.37-4.59l-16.72-2-16.76-1.68c-44.7-4.4-89.6-6.66-134.5-7.06s-89.82.79-134.65,3.5A1766.18,1766.18,0,0,0,825.82,39.93Q760,54.21,695.57,74.18c-21.42,6.74-42.77,13.74-63.86,21.46-10.59,3.73-21,7.83-31.55,11.78l-15.65,6.22-7.82,3.13L568.92,120c-20.76,8.56-41.25,17.78-61.54,27.39-5.06,2.44-10.16,4.79-15.18,7.31l-15.08,7.5c-10,5.14-20,10.25-29.84,15.63q-29.64,16-58.45,33.49T332.31,248Q304.56,267.1,278,287.78t-51.83,43q-25.22,22.35-48.78,46.47c-7.82,8.06-15.5,16.27-22.94,24.69s-14.71,17-21.49,26Z"/><polygon class="cls-5" points="223.87 457.24 1486.13 1045.88 1483.69 1051.13 1496.8 1049.98 1489.25 1039.2 1486.81 1044.45 224.54 455.8 223.87 457.24"/><polygon class="cls-5" points="296.43 446.13 864.01 1142.26 859.53 1145.91 871.82 1150.59 869.72 1137.6 865.24 1141.26 297.65 445.13 296.43 446.13"/><rect class="cls-11" x="204.67" y="1190.94" width="61.5" height="36.23"/><text class="cls-15" transform="translate(218.56 1211.98)"><tspan class="cls-32">A</tspan><tspan x="8.4" y="0">dd</tspan></text><text class="cls-15" transform="translate(35.23 1316.63)">List</text><line x1="292.61" y1="1127.71" x2="757.45" y2="1335.89"/><polygon class="cls-5" points="292.29 1128.44 746.73 1331.96 744.36 1337.24 757.45 1335.89 749.74 1325.23 747.38 1330.51 292.94 1126.99 292.29 1128.44"/><line x1="1115.57" y1="1259.29" x2="518.71" y2="1154.5"/><polygon class="cls-5" points="1115.71 1258.51 530.07 1155.69 531.07 1149.99 518.71 1154.5 528.79 1162.95 529.79 1157.25 1115.43 1260.07 1115.71 1258.51"/><path class="cls-5" d="M1223.33,1250.24c-1-10.21-2.55-20.29-4.33-30.35s-3.91-20.05-6.28-30q-7.08-29.81-17.08-58.81a609.34,609.34,0,0,0-51-111.18l-1.93-3.31-2-3.26-4-6.53c-2.76-4.3-5.44-8.65-8.32-12.87-5.59-8.54-11.57-16.83-17.62-25.05A545.73,545.73,0,0,0,1071.37,922a532.72,532.72,0,0,0-44.56-42,513.29,513.29,0,0,0-49.21-36.46A542.34,542.34,0,0,0,924.51,813c-2.28-1.14-4.54-2.33-6.85-3.42l-6.93-3.27c-2.31-1.07-4.6-2.2-6.94-3.23l-7-3.08c-2.35-1-4.67-2.06-7-3l-7.06-3-14.11-5.9-28.23-11.81c-9.41-3.93-18.87-7.75-28.3-11.63s-18.86-7.76-28.33-11.55l-28.42-11.34c-37.95-15-76-29.66-114.57-43.07l-14.47-5c-4.84-1.64-9.7-3.18-14.55-4.77-2.43-.78-4.84-1.59-7.28-2.35l-7.33-2.23-7.32-2.22-7.38-2.07c-2.47-.66-4.91-1.41-7.39-2l-7.45-1.84-6.6-1.41-.35-.08,1.1-5.68c-2.13.67-4.34,1.49-6.41,2.24-1,.39-2.13.86-3.15,1.3-.5.21-1,.45-1.53.72a11.92,11.92,0,0,0-1.44.82,12.84,12.84,0,0,1,1.4.82c.44.28.87.58,1.31.92.87.65,1.68,1.25,2.51,1.94,1.67,1.4,3.23,2.7,4.82,4.16l1.09-5.68.35.08,6.54,1.39,7.41,1.83c2.47.59,4.91,1.34,7.37,2l7.35,2.06,7.31,2.22,7.31,2.22c2.44.76,4.85,1.57,7.28,2.35,4.84,1.59,9.69,3.13,14.52,4.76l14.46,5c38.51,13.4,76.57,28.08,114.5,43l28.41,11.34c9.47,3.79,18.88,7.71,28.33,11.55s18.88,7.7,28.29,11.62L868,789.54l14.11,5.91,7.06,2.95c2.35,1,4.67,2,7,3.05l7,3.07c2.33,1,4.61,2.15,6.92,3.22L917,811c2.3,1.09,4.55,2.28,6.83,3.41a537.94,537.94,0,0,1,52.93,30.44,510.18,510.18,0,0,1,49.06,36.35,532.73,532.73,0,0,1,44.43,41.88,547.5,547.5,0,0,1,39.26,46.76c6,8.21,12,16.47,17.57,25,2.87,4.21,5.54,8.55,8.3,12.83l4,6.51,2,3.26,1.93,3.29a608.47,608.47,0,0,1,50.88,110.89q9.93,28.91,17,58.66,3.55,14.87,6.26,29.9c1.78,10,3.37,20.11,4.32,30.2Z"/><polygon class="cls-5" points="408.25 445.9 214.48 1003.48 209.01 1001.58 211.49 1014.5 221.44 1005.89 215.98 1004 409.75 446.42 408.25 445.9"/><polygon class="cls-5" points="448.76 1112.97 429.29 770.64 435.06 770.31 427.85 759.31 421.93 771.06 427.7 770.73 447.18 1113.06 448.76 1112.97"/><polygon class="cls-5" points="1037.11 323.13 959.12 1135.31 953.36 1134.76 958.82 1146.73 966.46 1136.02 960.7 1135.47 1038.69 323.28 1037.11 323.13"/><polygon class="cls-5" points="1156.93 323.04 499 1002.08 494.85 998.06 491.65 1010.82 504.3 1007.21 500.14 1003.19 1158.07 324.15 1156.93 323.04"/><polygon class="cls-5" points="1233.4 325.3 559.58 577.22 557.55 571.8 549.19 581.96 562.16 584.13 560.14 578.71 1233.96 326.79 1233.4 325.3"/><polygon class="cls-5" points="1734.92 504.9 1247.05 1144.96 1242.45 1141.45 1240.77 1154.5 1252.91 1149.42 1248.31 1145.92 1736.19 505.86 1734.92 504.9"/><polygon class="cls-5" points="1828.76 505.23 534.29 1309.94 531.23 1305.03 525.03 1316.63 538.18 1316.2 535.13 1311.29 1829.6 506.58 1828.76 505.23"/><path class="cls-5" d="M1921.61,505c-1.37,4.85-3.07,9.67-4.85,14.43s-3.75,9.46-5.78,14.13q-6.13,14-13.41,27.43a446,446,0,0,1-32.69,51.59c-6,8.26-12.33,16.22-18.79,24.1-3.32,3.86-6.54,7.81-10,11.58L1831,654l-5.21,5.58a530.48,530.48,0,0,1-44.29,42.1,593.82,593.82,0,0,1-48.62,37c-4.25,2.83-8.45,5.71-12.72,8.48l-12.92,8.17-13.13,7.84c-4.41,2.56-8.88,5-13.32,7.52q-26.79,14.73-54.77,27.16c-18.63,8.28-37.65,15.67-56.84,22.54l-14.47,5c-2.4.85-4.84,1.6-7.27,2.37l-7.3,2.29c-9.69,3.18-19.54,5.82-29.32,8.68-4.92,1.35-9.87,2.59-14.8,3.89l-7.39,1.94c-2.47.64-5,1.18-7.44,1.78l-14.89,3.51c-5,1.13-10,2.12-15,3.19-9.95,2.2-20,4-30,5.84-5,1-10,1.74-15.08,2.57l-15.1,2.45L1376,866l-7.58,1-3.78.52-3.8.45-15.2,1.77-7.59.88-7.62.72c-81.21,8-163.06,8.43-244.51,3.75l-30.54-2-30.52-2.39-61-4.78c-40.7-3-81.34-6.81-122-10.37-40.68-3.39-81.27-7.72-121.89-11.71l-15.23-1.52c-5.08-.5-10.16-1-15.22-1.59l-30.42-3.41c-20.28-2.3-40.57-4.5-60.84-6.87L537.5,822.9,522.31,821c-5.06-.64-10.11-1.4-15.16-2.1l-30.31-4.27c-10.1-1.44-20.21-2.81-30.31-4.3l-30.23-4.77c-10.07-1.61-20.16-3.15-30.23-4.81l-30.13-5.34-15.07-2.66-3.77-.67-3.75-.74-7.51-1.49-30-6L266,777.23c-5-1.05-9.92-2.36-14.86-3.6l-14.83-3.73c-2.49-.59-4.92-1.35-7.38-2l-7.35-2.1-7.35-2.09-7.27-2.35L199.66,759,194.42,757l-.08,0-.34-.13,2.05-5.4a113.62,113.62,0,0,1-12.84,1.77,120.32,120.32,0,0,0,8.18,10.53l2.05-5.41.34.12.08,0,5.28,2,7.29,2.37,7.3,2.35,7.37,2.11,7.37,2.1c2.46.68,4.9,1.44,7.39,2l14.85,3.74c5,1.24,9.9,2.55,14.89,3.61l29.9,6.65,30,6,7.51,1.5,3.76.74,3.77.67L355.66,797l30.15,5.33c10.07,1.67,20.16,3.2,30.24,4.81l30.25,4.78c10.1,1.49,20.21,2.86,30.31,4.3l30.33,4.27c5.05.7,10.1,1.47,15.16,2.1l15.19,1.91,60.76,7.64c20.27,2.37,40.57,4.57,60.85,6.86l30.43,3.41c5.07.6,10.14,1.1,15.22,1.6l15.24,1.52c40.62,4,81.22,8.32,121.9,11.71,40.67,3.56,81.32,7.37,122,10.37l61,4.78,30.53,2.39,30.56,2c81.52,4.67,163.44,4.29,244.76-3.76l7.62-.72,7.61-.89,15.21-1.77,3.81-.44,3.79-.53,7.59-1,15.17-2.12,15.12-2.45c5-.83,10.09-1.59,15.1-2.57,10-1.89,20.09-3.65,30.07-5.86,5-1.07,10-2.06,15-3.2l14.91-3.51c2.48-.6,5-1.14,7.45-1.78l7.41-1.94c4.94-1.3,9.89-2.55,14.82-3.9,9.8-2.87,19.67-5.51,29.38-8.69l7.3-2.3c2.44-.77,4.88-1.52,7.29-2.37l14.49-5c19.24-6.88,38.29-14.29,57-22.59s37-17.37,54.9-27.22c4.45-2.52,8.93-5,13.34-7.54l13.17-7.85,13-8.2c4.29-2.78,8.5-5.67,12.75-8.5a591.36,591.36,0,0,0,48.75-37.13A532,532,0,0,0,1827,660.67l5.23-5.6,5.1-5.73c3.44-3.78,6.67-7.74,10-11.62,6.48-7.9,12.87-15.88,18.85-24.17a446.9,446.9,0,0,0,32.8-51.77q7.29-13.5,13.48-27.56c2-4.69,4-9.41,5.8-14.2s3.5-9.61,4.91-14.59Z"/><path class="cls-5" d="M1753.34,1135.47c-2.89,13.55-6.57,27-10.59,40.27s-8.52,26.45-13.44,39.44a544.09,544.09,0,0,1-35.1,75.51c-13.71,24.13-29.59,47.12-48.31,67.62s-40.36,38.42-64.88,51.43a694.88,694.88,0,0,1-76.65,32.6l-4.89,1.8c-1.63.6-3.26,1.21-4.91,1.73l-9.9,3.27-9.9,3.28c-1.65.54-3.29,1.11-5,1.62l-5,1.49-20,6-20.13,5.43q-40.37,10.49-81.43,18c-3.42.62-6.83,1.27-10.26,1.85l-10.28,1.71-5.14.85-5.16.77-10.31,1.54-10.33,1.4-4.57.57-.36,0-.7-5.74c-3.47,2.65-7,5.25-10.52,7.82,4,1.8,8,3.54,12.12,5.24l-.71-5.74.36,0,4.59-.56,10.34-1.41,10.33-1.54,5.16-.77,5.15-.86,10.3-1.7c3.43-.59,6.85-1.24,10.28-1.85q41.09-7.5,81.54-18l20.16-5.44,20-6,5-1.49c1.67-.51,3.31-1.08,5-1.62l9.91-3.28,9.91-3.28c1.66-.53,3.3-1.13,4.93-1.74l4.9-1.8c6.52-2.42,13.08-4.77,19.58-7.25l19.33-7.94,4.83-2c1.61-.64,3.17-1.43,4.76-2.14l9.49-4.37c6.31-2.94,12.7-5.71,18.87-9,24.7-13.11,46.51-31.18,65.3-51.76s34.76-43.69,48.52-67.91a544.73,544.73,0,0,0,35.2-75.72q7.41-19.55,13.48-39.55c4-13.33,7.71-26.76,10.63-40.42Z"/><path class="cls-5" d="M1865.56,1135.86c-1.18,5.82-2.69,11.63-4.28,17.39s-3.34,11.49-5.2,17.17q-5.53,17.07-12.26,33.73t-14.33,32.92c-1.27,2.71-2.6,5.39-3.9,8.09l-2,4-2,4-4.08,8-4.23,7.92a716.58,716.58,0,0,1-80.64,118.59,782.08,782.08,0,0,1-101.93,100.94c-18.41,15.32-37.63,29.64-57.32,43.26-9.78,6.91-19.9,13.32-29.92,19.87-10.23,6.23-20.33,12.66-30.77,18.53-41.4,24.11-84.8,44.67-129.19,62.63-2.75,1.17-5.55,2.24-8.35,3.3l-8.39,3.21-8.39,3.21c-2.8,1.06-5.59,2.16-8.42,3.12l-16.94,6-8.47,3-8.55,2.77-17.08,5.55c-2.84,1-5.73,1.76-8.59,2.63l-8.61,2.55c-5.75,1.69-11.47,3.46-17.24,5.07l-17.34,4.69c-92.59,24.76-187.73,39.33-283.25,46.59-47.78,3.64-95.69,5.43-143.6,5.84s-95.86-.16-143.77-1.62-95.77-4-143.53-7.9l-9-.72-8.94-.83-17.9-1.68c-6-.51-11.91-1.24-17.87-1.87l-17.86-2-17.83-2.22-8.92-1.11-8.89-1.24-17.8-2.5c-5.92-.88-11.83-1.86-17.75-2.78l-8.87-1.41c-3-.48-5.9-1-8.85-1.54l-17.69-3.14c-11.75-2.32-23.52-4.52-35.2-7.16-23.4-5.12-46.67-10.84-69.61-17.72a670.86,670.86,0,0,1-67.66-24,421.9,421.9,0,0,1-63.57-33.11,282.82,282.82,0,0,1-28.75-21.37A195.48,195.48,0,0,1,65,1569.12a150.65,150.65,0,0,1-19.24-30,129.51,129.51,0,0,1-6.63-16.57,127.34,127.34,0,0,1-4.16-17.35,117.83,117.83,0,0,1-.29-35.57c.44-2.94,1-5.87,1.63-8.77.31-1.45.7-2.89,1.08-4.33l.57-2,0-.08.1-.34,5.54,1.65a73.85,73.85,0,0,1-2.34-12.55A79.38,79.38,0,0,0,31,1452l5.54,1.66-.1.35,0,.08-.57,2c-.38,1.47-.78,2.92-1.09,4.4-.69,2.94-1.21,5.91-1.66,8.89a119.77,119.77,0,0,0,.29,36.06,125,125,0,0,0,10.93,34.35,152.24,152.24,0,0,0,19.44,30.37,197.94,197.94,0,0,0,25.32,25.65A283.11,283.11,0,0,0,118,1617.27a424.27,424.27,0,0,0,63.81,33.24,671.05,671.05,0,0,0,67.83,24c23,6.9,46.29,12.63,69.72,17.75,11.7,2.64,23.49,4.84,35.25,7.17l17.71,3.14c2.95.51,5.9,1.06,8.86,1.55l8.88,1.4c5.93.93,11.84,1.9,17.77,2.79l17.81,2.51,8.91,1.24,8.92,1.11,17.85,2.21,17.87,2c6,.63,11.92,1.35,17.89,1.87l17.9,1.68,9,.83,9,.72c47.79,3.93,95.69,6.43,143.61,7.91s95.88,2,143.83,1.62,95.89-2.2,143.71-5.85c95.6-7.27,190.83-21.85,283.54-46.64l17.36-4.69c5.78-1.61,11.51-3.39,17.26-5.08l8.62-2.56c2.87-.86,5.76-1.67,8.6-2.63l17.11-5.55,8.55-2.78,8.49-3,17-6c2.84-1,5.63-2.06,8.43-3.13l8.41-3.21,8.4-3.21c2.8-1.06,5.6-2.13,8.36-3.3,44.46-18,87.93-38.58,129.39-62.74,10.46-5.87,20.58-12.32,30.83-18.56,10-6.56,20.17-13,30-19.9,19.73-13.65,39-28,57.43-43.35a784.61,784.61,0,0,0,102.14-101.14,717.75,717.75,0,0,0,80.82-118.86l4.23-7.94,4.1-8,2-4,2-4.05c1.3-2.7,2.64-5.39,3.9-8.11q7.66-16.27,14.37-33t12.3-33.83q2.81-8.55,5.22-17.24c1.6-5.79,3.11-11.59,4.31-17.51Z"/><path class="cls-5" d="M1952.09,1120.15q-112.6-12.33-225.11-25.53t-225-26.94c-149.9-18.47-299.7-37.81-449.24-59C978,998,903.33,987,828.78,974.9q-55.9-9-111.67-19C680,949.25,642.87,942.16,606,934.25c-18.43-4-36.86-8.14-55.13-12.84s-36.47-9.73-54.18-16.13c-2.24-.75-4.4-1.66-6.58-2.54l-3.27-1.33c-1.09-.45-2.19-.85-3.23-1.39l-6.35-3c-2.09-1.07-4.15-2.22-6.23-3.34-8.29-4.5-16.64-8.91-24.88-13.5s-16.49-9.18-24.68-13.87l-12.24-7.1c-4.08-2.37-8.18-4.7-12.21-7.16l-12.14-7.28-6.06-3.65-6-3.73-12-7.47-11.92-7.62C333,812,317.27,801.55,301.93,790.57c-3.86-2.72-7.64-5.54-11.46-8.3s-7.56-5.64-11.31-8.49l-5.59-4.33-4.06-3.22-.07-.06-.28-.22,3.62-4.51c-4.3-.63-8.58-1.31-12.89-2.13,1.44,4.14,3,8.28,4.66,12.39l3.62-4.51.28.22.07.06,4.07,3.23,5.6,4.34q5.64,4.29,11.34,8.51c3.83,2.76,7.61,5.59,11.48,8.31,15.36,11,31.07,21.5,46.95,31.73l11.94,7.64,12,7.47,6,3.73,6.07,3.66,12.15,7.29c4,2.45,8.14,4.79,12.22,7.16l12.25,7.11c8.2,4.7,16.47,9.25,24.7,13.88s16.6,9,24.9,13.51c2.08,1.12,4.14,2.27,6.25,3.35l6.42,3.08c1.06.54,2.18.95,3.27,1.4l3.3,1.34c2.19.89,4.38,1.81,6.62,2.55,17.81,6.44,36,11.47,54.34,16.19s36.74,8.81,55.19,12.85c36.93,7.92,74,15,111.2,21.7s74.42,12.94,111.7,19c74.56,12,149.27,23.12,224,33.76,149.55,21.22,299.36,40.56,449.27,59q112.42,13.83,225,26.94t225.12,25.53Z"/></g></g></svg>